<?xml version="1.0" encoding="utf-8"?>
<!-- Generator: Adobe Illustrator 27.4.0, SVG Export Plug-In . SVG Version: 6.00 Build 0)  -->
<svg version="1.1" id="Layer_1" xmlns="http://www.w3.org/2000/svg" xmlns:xlink="http://www.w3.org/1999/xlink" x="0px" y="0px"
	 viewBox="0 0 1920 445.92" style="enable-background:new 0 0 1920 445.92;" xml:space="preserve">
<style type="text/css">
	.st0{fill:#F6D100;}
	.st1{fill:#537ABB;}
</style>
<g>
	<path class="st1" d="M272.44,126.37c23.92,0,45.99,7.36,62.78,17.71v59.1h-0.46c-10.35-33.35-39.09-71.98-74.28-71.98
		c-28.98,0-44.15,23.46-44.15,54.5c0,47.83,35.18,80.72,78.42,80.72c12.88,0,37.95-5.06,49.21-31.05l0.92,0.46
		c-9.2,25.07-32.19,55.19-75.43,55.19c-49.21,0-88.54-33.35-88.54-82.33C180.91,159.95,221.16,126.37,272.44,126.37z"/>
	<path class="st1" d="M390.41,195.36c-4.83,5.06-9.89,16.1-9.89,34.73c0,20.47,10.35,39.09,29.44,38.86c3.45,0,7.13-0.69,10.81-2.07
		c-10.81-31.05-24.61-71.98-31.97-80.49c-5.06-5.98-12.42-6.9-17.94-5.98l-0.23-0.69c7.82-4.6,16.56-7.36,25.99-7.36
		c13.8,0,29.2,6.44,36.1,24.38c8.05,20.7,17.71,47.83,26.68,71.75c3.68,9.89,8.51,17.47,11.73,20.69h-42.54l-6.44-18.4
		c-6.44,13.57-17.02,20.24-32.65,20.24c-24.38,0-41.62-17.48-41.62-40.47C347.86,224.11,365.11,205.25,390.41,195.36z"/>
	<path class="st1" d="M467.21,193.3l45.07-20.93v45.3c5.06-26.68,18.86-42.54,47.83-45.3l-7.13,34.04
		c-15.18-3.22-40.71,0.46-40.71,24.83v17.71c0,23,5.52,35.88,10.81,40.24h-46.68l1.38-60.48c0.46-23-6.9-31.96-10.58-34.49V193.3z"
		/>
	<path class="st1" d="M618.52,172.37c32.65,0,59.1,26.45,59.1,59.33c0,32.88-26.22,59.33-59.33,59.33
		c-32.89,0-59.33-26.22-59.33-59.56C558.96,198.58,585.64,172.37,618.52,172.37z M634.62,285.51c8.74,0.46,13.57-8.51,13.57-22.54
		c0-30.35-23.69-85.09-46.91-85.09c-8.28,0-12.65,8.97-12.65,21.85C588.63,229.4,611.86,283.67,634.62,285.51z"/>
	<path class="st1" d="M681.76,150.29l45.07-22.08v120.73c0,23,5.52,35.88,10.81,40.24h-46.68l1.38-103.48
		c0.23-23-6.9-31.96-10.58-34.49V150.29z"/>
	<path class="st1" d="M741.32,194.44l45.07-22.08v76.58c0,23,5.52,35.88,10.81,40.24h-46.68l1.38-59.33
		c0.46-23-6.9-31.96-10.58-34.49V194.44z M768.22,125c11.96,0,20.47,9.66,20.47,20.93c0,11.5-8.51,20.47-20.47,20.47
		c-11.73,0-20.93-8.97-20.93-20.47C747.29,134.65,756.49,125,768.22,125z"/>
	<path class="st1" d="M800.87,194.44l45.07-22.08v16.79c5.52-7.82,15.18-16.79,30.58-16.79c19.78,0,27.37,10.81,33.8,38.64
		l9.66,42.31c5.06,22.31,11.27,31.28,17.02,35.88h-46.68l-17.02-79.8c-3.22-14.95-4.6-24.15-11.73-25.52
		c-6.44-1.15-11.04,3.22-15.64,8.74v56.34c0,23,5.52,35.88,10.81,40.24h-46.68l1.38-59.33c0.46-23-6.9-31.96-10.58-34.49V194.44z"/>
	<path class="st1" d="M976.79,195.36c-4.83,5.06-9.89,16.1-9.89,34.73c0,20.47,10.35,39.09,29.44,38.86c3.45,0,7.13-0.69,10.81-2.07
		c-10.81-31.05-24.61-71.98-31.97-80.49c-5.06-5.98-12.42-6.9-17.94-5.98l-0.23-0.69c7.82-4.6,16.56-7.36,25.99-7.36
		c13.8,0,29.2,6.44,36.1,24.38c8.05,20.7,17.71,47.83,26.68,71.75c3.68,9.89,8.51,17.47,11.73,20.69h-42.54l-6.44-18.4
		c-6.44,13.57-17.02,20.24-32.65,20.24c-24.38,0-41.62-17.48-41.62-40.47C934.24,224.11,951.49,205.25,976.79,195.36z"/>
	<path class="st1" d="M1108.55,289.19c6.44-14.95,11.96-43.46,14.03-76.58l3.22-52.89l-12.42-31.51h40.71l47.83,122.11l43.92-122.11
		h40.94c-3.91,3.91-10.12,10.81-13.34,18.4l5.06,94.98c1.38,25.07,5.75,37.48,10.81,47.6h-55.88c6.67-10.12,9.2-28.29,8.28-47.6
		l-3.45-64.62c-8.97,13.34-17.71,29.2-23.69,46.45l-12.65,35.88v29.9h-25.53l-47.83-122.11l-2.3,37.48
		c-2.99,47.6,13.11,75.43,20.24,84.63H1108.55z"/>
	<path class="st1" d="M1335.28,195.36c-4.83,5.06-9.89,16.1-9.89,34.73c0,20.47,10.35,39.09,29.44,38.86
		c3.45,0,7.13-0.69,10.81-2.07c-10.81-31.05-24.61-71.98-31.97-80.49c-5.06-5.98-12.42-6.9-17.94-5.98l-0.23-0.69
		c7.82-4.6,16.56-7.36,25.99-7.36c13.8,0,29.21,6.44,36.11,24.38c8.05,20.7,17.71,47.83,26.68,71.75
		c3.68,9.89,8.51,17.47,11.73,20.69h-42.54l-6.44-18.4c-6.44,13.57-17.02,20.24-32.65,20.24c-24.38,0-41.62-17.48-41.62-40.47
		C1292.74,224.11,1309.98,205.25,1335.28,195.36z"/>
	<path class="st1" d="M1464.75,278.15c17.02-8.28,23.46-20.24,23.23-39.09c-0.23-28.29-19.78-66.92-37.72-62.32
		c-8.74,2.3-10.58,12.19-10.58,21.39c0,25.07,12.42,59.1,35.41,68.53c-6.44,2.3-13.34,3.45-19.78,3.45
		c-24.38,0-43-18.17-44.38-43.69c-1.84-34.04,25.07-55.19,57.49-54.04c12.42,0.46,23.46,4.14,32.2,10.81l6.21-26.91h30.35v0.92
		c-12.42,9.2-26.22,18.63-34.95,27.37c9.66,7.59,15.41,20.7,14.95,34.04c-0.92,22.54-14.95,37.48-41.85,56.8
		c-25.3,17.94-34.04,41.4-35.18,55.88c-0.46,6.9,1.61,14.95,8.51,13.34c14.72-3.45,15.87-38.18,74.51-68.53v43.69
		c-44.15,0-64.39,32.42-95.44,32.42c-13.11,0-24.61-8.28-24.61-21.39C1403.12,306.67,1432.32,294.48,1464.75,278.15z"/>
	<path class="st1" d="M1528.67,193.3l45.07-20.93v45.3c5.06-26.68,18.86-42.54,47.83-45.3l-7.13,34.04
		c-15.18-3.22-40.71,0.46-40.71,24.83v17.71c0,23,5.52,35.88,10.81,40.24h-46.68l1.38-60.48c0.46-23-6.9-31.96-10.58-34.49V193.3z"
		/>
	<path class="st1" d="M1679.99,172.37c32.65,0,59.1,26.45,59.1,59.33c0,32.88-26.22,59.33-59.33,59.33
		c-32.88,0-59.33-26.22-59.33-59.56C1620.42,198.58,1647.1,172.37,1679.99,172.37z M1696.08,285.51
		c8.74,0.46,13.57-8.51,13.57-22.54c0-30.35-23.69-85.09-46.91-85.09c-8.28,0-12.65,8.97-12.65,21.85
		C1650.09,229.4,1673.32,283.67,1696.08,285.51z"/>
</g>
</svg>
