<?xml version="1.0" encoding="utf-8"?>
<!-- Generator: Adobe Illustrator 27.4.0, SVG Export Plug-In . SVG Version: 6.00 Build 0)  -->
<svg version="1.1" id="Layer_1" xmlns="http://www.w3.org/2000/svg" xmlns:xlink="http://www.w3.org/1999/xlink" x="0px" y="0px"
	 viewBox="0 0 1920 1664.48" style="enable-background:new 0 0 1920 1664.48;" xml:space="preserve">
<style type="text/css">
	.st0{fill:#537ABB;}
</style>
<path class="st0" d="M1889.83,1015.08l-28.95,4.53l-15.36,11.76l-27.42,10.63l-4.86-19.36l7.24-6.02l-10.85-25.34
	c0,0-28.95-123.04-28.95-126.66c0-3.61,4.82-15.67,4.82-15.67l-12.05-30.15l-20.52-63.93l-50.65-112.17l6.03-8.44l-36.21-34.97
	l1.23-9.65l-20.5-21.72l-16.89-21.7l-16.89-45.83l-7.24-24.13l-28.04-48.56l13.58,2.72l51.86,8.45l31.37-12.07l-3.63-8.44
	c0,0-25.32-1.2-28.94-1.2c-3.63,0-37.41-4.83-41.02-4.83c-3.63,0-39.81-9.65-39.81-9.65l-14.31,2.75l-0.21-0.13l10.91-6.24
	l26.52-1.2l35,2.41l43.4-14.48l37.4-19.3l13.28-22.92l-0.85-0.42l0,0l-6.39-3.2l-14.47,14.48l-31.37,10.86l-31.37-2.42h-42.19
	l-24.11,2.42l13.24-9.65l39.81-19.3l51.87-19.3l28.95-30.15l2.38-28.94h-1.57h-6.87l-12.05,20.5l-25.32,10.86l-44.65,16.89
	l-36.98,7.79l26.12-42.77l15.69-41.01l6.03-50.65l-9.47-14.71l0,0l-1.4-2.18l-12.05-3.62l1.19,21.71l-12.05,53.07l-26.53,44.62
	l-22.92,31.36l-11.09,12.42l0.23-0.36l20.5-41c0,0,8.45-32.57,9.65-36.19c1.21-3.62,4.84-36.19,4.84-36.19l1.19-45.83l-7.23-24.13
	l-9.66-7.23l1.21,12.07l3.63,38.6l-9.66,63.92l-18.1,45.83l-21.71,22.92l-10.02,11.35l-0.92-0.5l-21.71,26.54l-4.68,4.18l5.98-12.64
	l19.29-24.11l18.12-25.33l14.47-37.4l4.82-37.39l-2.42-42.22l-6.02-49.44l-10.85-22.92l-3.11,0.85l0,0l-10.16,2.77l6.03,10.86
	l3.61,38.6l-2.42,38.6l-12.06,55.48l-14.45,27.74l-21.76,29.68l-3.58-9.17l-2.51,2.16l8.54-15.44l15.68-39.8l4.82-57.9l-13.28-39.81
	l-26.52-34.98l-13.28-1.2l1.19,16.89l15.69,22.92l8.44,22.91l-1.55,15.56l-2.06-9.53l-25.32,92.86l-19.29,41.02l-33.79,47.03
	l-8.44,31.36l7.24,38.6l3.13,3.48l-26.07,23.05l-19.29,42.22l-1.19,43.42l13.26,26.54l9.65,10.85l4.57-3.03l0,0l2.67-1.79
	l-9.66-18.09l6.16-24.56l7.12,18.52l16.89,13.27l14.43,2.62l-2.37,9.44l4.84,28.95l-32.58,54.28l8.45,123.03l53.07,121.82
	l25.32,25.32l9.66,43.13l4.27,5.8l0.27,9.58l4.5,27.14l9,9.82l0.94,5.56l11.76,21.69l10.85,16.29l1.14,4.19l-0.23,0.33l-19.01,2.72
	l-13.56,2.72l-14.47,7.22l-19.01,9.05l-19.91,13.58l-14.31,14.3l25.16,1.98l-34.36-2.71l-38.01-0.91l3.63,44.33l12.67,6.33h34.01
	l2.17,10.86l16.3,9.06l1.41-1.57l6.71,3.37l13.58-5.44l4.57-9.81l16.25,2.59l34.38-8.15l26.21-9.04l33.47-20.82l0.34-0.16l1.64,1.47
	l2.55,9.56l-6.32,16.27l-3.61,10.87l13.56-5.43l8.15-16.29l2.13-10.72l6.89,0.77l3.2-12.81l4.04-0.76l23.53-10.86l37.17-8.66
	c0.85,4.13,1.49,7.04,1.73,7.77c1.19,3.61,24.13,73.57,26.52,78.4c2.42,4.81,25.36,45.83,25.36,45.83l19.29,7.23l32.55,20.51
	l34.98,6.02l25.34-19.3l20.5-13.26l8.44-4.84l-12.05-27.73l-19.31-50.65l-18.52-56.58l1.62-6.15l21.75,9.65l14.47-6.04l-6.74-29.25
	l40.22-19l26.21-2.7l2.74-22.63L1889.83,1015.08z M1506.29,1089.27l16.28-2.72l2.31-6.48l4.02-0.76l9.02-20.79l9.96-19.92l0.93-7.73
	l6.32-4.01l-1.28-10.8l59.17,31.91l29.54,26.44c0.36,1.89,0.77,4.02,1.19,6.26l-18.97-6.77l-26.25,3.61l-32.55,7.24l-28.95,6.33
	l-13.79,7.47l-4.31-0.24l-16.28-2.71l-7.23-2.72L1506.29,1089.27z M1479.6,1115.04l-23.53,6.34l-9.08,1.71l31.25-13.03
	c0,0,5.61,1.27,12.06,2.77L1479.6,1115.04z M1435.71,1183.35l-5.87-1.37v-0.02l-0.84-4.14l10.93,1.73L1435.71,1183.35z"/>
<g>
	<path d="M282.36,721.89c23.93,0,46.01,7.36,62.8,17.71v59.12h-0.46c-10.35-33.36-39.11-72-74.3-72
		c-28.99,0-44.17,23.46-44.17,54.52c0,47.85,35.2,80.74,78.44,80.74c12.88,0,37.96-5.06,49.23-31.06l0.92,0.46
		c-9.2,25.07-32.21,55.21-75.45,55.21c-49.23,0-88.56-33.35-88.56-82.35C190.8,755.48,231.06,721.89,282.36,721.89z"/>
	<path d="M400.36,790.9c-4.83,5.06-9.89,16.1-9.89,34.74c0,20.48,10.35,39.11,29.44,38.88c3.45,0,7.13-0.69,10.81-2.07
		c-10.81-31.05-24.61-72-31.97-80.51c-5.06-5.98-12.42-6.9-17.94-5.98l-0.23-0.69c7.82-4.6,16.56-7.36,26-7.36
		c13.8,0,29.21,6.44,36.11,24.39c8.05,20.7,17.71,47.85,26.68,71.77c3.68,9.89,8.51,17.48,11.73,20.7h-42.56l-6.44-18.4
		c-6.44,13.57-17.02,20.24-32.67,20.24c-24.38,0-41.64-17.48-41.64-40.48C357.8,819.66,375.05,800.8,400.36,790.9z"/>
	<path d="M477.19,788.83l45.09-20.93v45.32c5.06-26.68,18.86-42.56,47.85-45.32l-7.13,34.05c-15.18-3.22-40.71,0.46-40.71,24.84
		v17.72c0,23,5.52,35.88,10.81,40.25h-46.7l1.38-60.5c0.46-23-6.9-31.97-10.58-34.5V788.83z"/>
	<path d="M628.55,767.9c32.67,0,59.12,26.46,59.12,59.35c0,32.9-26.22,59.35-59.35,59.35c-32.9,0-59.35-26.22-59.35-59.58
		C568.97,794.12,595.65,767.9,628.55,767.9z M644.65,881.08c8.74,0.46,13.57-8.51,13.57-22.54c0-30.36-23.69-85.11-46.93-85.11
		c-8.28,0-12.65,8.97-12.65,21.85C598.64,824.95,621.88,879.24,644.65,881.08z"/>
	<path d="M691.8,745.82l45.09-22.08v120.77c0,23,5.52,35.88,10.81,40.25H701l1.38-103.52c0.23-23-6.9-31.97-10.58-34.51V745.82z"/>
	<path d="M751.38,789.98l45.09-22.08v76.6c0,23,5.52,35.88,10.81,40.25h-46.7l1.38-59.35c0.46-23-6.9-31.97-10.58-34.51V789.98z
		 M778.29,720.51c11.96,0,20.47,9.66,20.47,20.94c0,11.5-8.51,20.47-20.47,20.47c-11.73,0-20.93-8.97-20.93-20.47
		C757.36,730.18,766.56,720.51,778.29,720.51z"/>
	<path d="M810.95,789.98l45.09-22.08v16.79c5.52-7.82,15.18-16.79,30.6-16.79c19.78,0,27.37,10.81,33.81,38.65l9.66,42.32
		c5.06,22.32,11.27,31.29,17.02,35.89h-46.7l-17.02-79.82c-3.22-14.95-4.6-24.15-11.73-25.54c-6.44-1.15-11.04,3.22-15.64,8.74
		v56.36c0,23,5.52,35.88,10.81,40.25h-46.7l1.38-59.35c0.46-23-6.9-31.97-10.58-34.51V789.98z"/>
	<path d="M986.92,790.9c-4.83,5.06-9.89,16.1-9.89,34.74c0,20.48,10.35,39.11,29.44,38.88c3.45,0,7.13-0.69,10.81-2.07
		c-10.81-31.05-24.61-72-31.97-80.51c-5.06-5.98-12.42-6.9-17.94-5.98l-0.23-0.69c7.82-4.6,16.56-7.36,26-7.36
		c13.8,0,29.21,6.44,36.11,24.39c8.05,20.7,17.71,47.85,26.68,71.77c3.68,9.89,8.51,17.48,11.73,20.7h-42.56l-6.44-18.4
		c-6.44,13.57-17.02,20.24-32.67,20.24c-24.38,0-41.63-17.48-41.63-40.48C944.36,819.66,961.62,800.8,986.92,790.9z"/>
	<path d="M1118.72,884.76c6.44-14.95,11.96-43.48,14.03-76.6l3.22-52.91l-12.42-31.51h40.71l47.85,122.15l43.94-122.15h40.95
		c-3.91,3.91-10.12,10.81-13.34,18.4l5.06,95.01c1.38,25.07,5.75,37.49,10.81,47.62h-55.9c6.67-10.12,9.2-28.29,8.28-47.62
		l-3.45-64.64c-8.97,13.34-17.71,29.21-23.69,46.47l-12.65,35.89v29.9h-25.53l-47.85-122.15l-2.3,37.5
		c-2.99,47.62,13.11,75.45,20.24,84.65H1118.72z"/>
	<path d="M1345.52,790.9c-4.83,5.06-9.89,16.1-9.89,34.74c0,20.48,10.35,39.11,29.44,38.88c3.45,0,7.13-0.69,10.81-2.07
		c-10.81-31.05-24.61-72-31.97-80.51c-5.06-5.98-12.42-6.9-17.94-5.98l-0.23-0.69c7.82-4.6,16.56-7.36,26-7.36
		c13.8,0,29.21,6.44,36.11,24.39c8.05,20.7,17.71,47.85,26.68,71.77c3.68,9.89,8.51,17.48,11.73,20.7h-42.56l-6.44-18.4
		c-6.44,13.57-17.02,20.24-32.67,20.24c-24.38,0-41.63-17.48-41.63-40.48C1302.97,819.66,1320.22,800.8,1345.52,790.9z"/>
	<path d="M1475.03,873.72c17.02-8.28,23.46-20.24,23.23-39.11c-0.23-28.29-19.78-66.94-37.73-62.34
		c-8.74,2.3-10.58,12.19-10.58,21.39c0,25.08,12.42,59.12,35.43,68.55c-6.44,2.3-13.34,3.45-19.78,3.45
		c-24.39,0-43.02-18.17-44.4-43.71c-1.84-34.04,25.07-55.21,57.51-54.06c12.42,0.46,23.46,4.14,32.2,10.81l6.21-26.91h30.36v0.92
		c-12.42,9.2-26.22,18.63-34.97,27.37c9.66,7.59,15.41,20.7,14.95,34.04c-0.92,22.54-14.95,37.5-41.87,56.82
		c-25.3,17.94-34.04,41.41-35.2,55.9c-0.46,6.9,1.61,14.95,8.51,13.34c14.72-3.45,15.87-38.19,74.53-68.55v43.71
		c-44.17,0-64.41,32.43-95.46,32.43c-13.11,0-24.61-8.28-24.61-21.39C1413.38,902.24,1442.59,890.05,1475.03,873.72z"/>
	<path d="M1538.97,788.83l45.09-20.93v45.32c5.06-26.68,18.86-42.56,47.85-45.32l-7.13,34.05c-15.18-3.22-40.71,0.46-40.71,24.84
		v17.72c0,23,5.52,35.88,10.81,40.25h-46.7l1.38-60.5c0.46-23-6.9-31.97-10.58-34.5V788.83z"/>
	<path d="M1690.33,767.9c32.67,0,59.12,26.46,59.12,59.35c0,32.9-26.22,59.35-59.35,59.35c-32.9,0-59.35-26.22-59.35-59.58
		C1630.75,794.12,1657.44,767.9,1690.33,767.9z M1706.43,881.08c8.74,0.46,13.57-8.51,13.57-22.54c0-30.36-23.69-85.11-46.93-85.11
		c-8.28,0-12.65,8.97-12.65,21.85C1660.43,824.95,1683.66,879.24,1706.43,881.08z"/>
	<path d="M199.36,955.82h61.08v8.69H208.9v28.85h46.12v8.69H208.9v29.58h52.15v8.69h-61.69V955.82z"/>
	<path d="M297.49,1008.57l-23.54-30.66h10.62l18.47,24.14l18.47-24.14h10.38l-23.66,30.42l24.63,31.99h-10.74l-19.31-25.47
		l-19.44,25.47h-10.38L297.49,1008.57z"/>
	<path d="M339.85,1009.17c0-17.62,13.76-32.59,32.59-32.59c18.71,0,32.47,14.73,32.47,32.59c0,17.63-13.88,32.6-32.72,32.6
		C353.49,1041.77,339.85,1027.04,339.85,1009.17z M395.38,1009.17c0-13.4-10.02-24.38-23.18-24.38c-13.52,0-22.81,10.98-22.81,24.38
		c0,13.4,9.9,24.27,23.06,24.27C385.96,1033.44,395.38,1022.57,395.38,1009.17z"/>
	<path d="M424.94,1023.78v-37.66h-8.69v-8.21h8.69v-18.83h9.3v18.83h19.79v8.21h-19.79v36.46c0,7.6,4.22,10.38,10.5,10.38
		c3.14,0,5.79-0.6,9.05-2.17v7.97c-3.26,1.69-6.76,2.66-11.23,2.66C432.54,1041.4,424.94,1036.45,424.94,1023.78z"/>
	<path d="M470.68,954.01h10.62v10.26h-10.62V954.01z M471.28,977.91h9.29v62.41h-9.29V977.91z"/>
	<path d="M498.32,1009.17c0-17.62,13.76-32.59,31.99-32.59c11.83,0,19.2,4.95,24.99,11.11l-5.92,6.28
		c-4.95-5.19-10.74-9.17-19.19-9.17c-12.68,0-22.33,10.74-22.33,24.38c0,13.52,9.9,24.27,22.93,24.27c7.97,0,13.89-4.1,18.83-9.41
		l6.16,5.67c-6.27,7-13.76,12.07-25.47,12.07C512.08,1041.77,498.32,1026.92,498.32,1009.17z"/>
	<path d="M601.63,955.82h10.62l30.06,72.79l30.18-72.79h10.26l-36.33,85.11h-8.45L601.63,955.82z"/>
	<path d="M716.9,1033.68c8.57,0,14.6-3.5,19.68-8.81l5.79,5.19c-6.28,7-13.88,11.71-25.71,11.71c-17.14,0-31.15-13.16-31.15-32.6
		c0-18.11,12.68-32.59,29.94-32.59c18.47,0,29.09,14.73,29.09,33.08c0,0.84,0,1.81-0.12,3.26h-49.49
		C696.25,1026.07,705.91,1033.68,716.9,1033.68z M735.13,1005.43c-1.09-11.35-7.6-21-19.92-21c-10.74,0-18.95,8.93-20.28,21H735.13z
		"/>
	<path d="M764.08,1023.78v-37.66h-8.69v-8.21h8.69v-18.83h9.29v18.83h19.8v8.21h-19.8v36.46c0,7.6,4.23,10.38,10.51,10.38
		c3.14,0,5.79-0.6,9.05-2.17v7.97c-3.26,1.69-6.76,2.66-11.23,2.66C771.69,1041.4,764.08,1036.45,764.08,1023.78z"/>
	<path d="M895.04,1028.37c-7.73,8.33-16.66,13.16-27.64,13.16c-15.21,0-26.56-9.54-26.56-23.9c0-11.23,7.48-19.31,20.4-24.38
		c-5.79-6.76-8.45-11.95-8.45-18.84c0-11.1,8.93-20.04,22.33-20.04c11.83,0,20.52,8.57,20.52,19.31s-7.6,17.63-19.92,21.97
		l19.31,19.68c3.75-5.43,7.13-11.83,10.14-18.83l7.84,3.62c-3.74,7.97-7.6,15.21-12.19,21.25l14.73,15.09l-7.24,5.55L895.04,1028.37
		z M889.25,1022.45l-22.57-23.3c-11.23,4.11-16.17,10.98-16.17,18.35c0,9.05,7.24,15.93,17.62,15.93
		C876.09,1033.44,883.09,1029.21,889.25,1022.45z M886.72,973.92c0-6.76-5.07-11.71-11.95-11.71c-7.6,0-12.79,5.31-12.79,12.43
		c0,4.95,2.05,8.69,8.45,15.57C881.16,986.6,886.72,981.41,886.72,973.92z"/>
	<path d="M967.57,955.82h9.54v75.69h47.56v8.81h-57.1V955.82z"/>
	<path d="M1036,1021.97c0-13.4,10.87-20.4,26.68-20.4c7.97,0,13.52,1.09,19.08,2.66v-1.93c0-11.11-6.76-16.9-18.47-16.9
		c-7.36,0-13.16,1.81-18.95,4.46l-2.78-7.6c6.88-3.14,13.52-5.31,22.69-5.31c8.81,0,15.69,2.41,20.16,6.88
		c4.35,4.35,6.52,10.38,6.52,18.35v38.15h-9.17v-9.3c-4.35,5.55-11.47,10.62-22.46,10.62C1047.59,1041.64,1036,1035.01,1036,1021.97
		z M1081.88,1017.38v-5.79c-4.59-1.33-10.62-2.66-18.23-2.66c-11.59,0-18.23,5.07-18.23,12.79c0,7.85,7.24,12.44,15.69,12.44
		C1072.58,1034.16,1081.88,1027.28,1081.88,1017.38z"/>
	<path d="M1119.89,1028.37v11.95h-9.3v-88.13h9.3v38.27c5.07-7.48,12.44-13.88,23.9-13.88c14.97,0,29.82,11.83,29.82,32.59
		c0,20.4-14.73,32.47-29.82,32.47C1132.2,1041.64,1124.72,1035.37,1119.89,1028.37z M1164.07,1009.05
		c0-14.73-10.14-24.14-21.97-24.14c-11.59,0-22.57,9.78-22.57,24.26s10.98,24.14,22.57,24.14
		C1154.17,1033.31,1164.07,1024.38,1164.07,1009.05z"/>
	<path d="M1185.54,1032.35l4.71-6.64c6.76,5.07,14.24,7.97,21.61,7.97c7.48,0,12.92-3.86,12.92-10.14s-7.36-8.69-15.57-10.98
		c-9.78-2.78-20.64-6.16-20.64-17.87c0-10.74,8.93-17.86,21.25-17.86c7.6,0,16.06,2.65,22.45,6.88l-4.22,7
		c-5.79-3.75-12.43-6.04-18.47-6.04c-7.36,0-12.08,3.86-12.08,9.3c0,5.92,7.73,8.21,16.06,10.74c9.66,2.9,20.04,6.64,20.04,18.11
		c0,11.83-9.78,18.71-22.21,18.71C1202.44,1041.53,1192.55,1038.02,1185.54,1032.35z"/>
</g>
</svg>
