<?xml version="1.0" encoding="UTF-8"?><svg id="Layer_1" xmlns="http://www.w3.org/2000/svg" viewBox="0 0 850.39 550.25"><defs><style>.cls-1{fill:#1d1d1b;}.cls-2{fill:#38679d;}</style></defs><g><path d="m84.93,214.44c10.74,0,20.66,3.31,28.21,7.96v26.55h-.21c-4.65-14.98-17.56-32.34-33.37-32.34-13.02,0-19.84,10.54-19.84,24.49,0,21.49,15.81,36.27,35.23,36.27,5.79,0,17.05-2.27,22.11-13.95l.41.21c-4.13,11.26-14.47,24.8-33.89,24.8-22.11,0-39.78-14.98-39.78-36.99s18.08-36.99,41.12-36.99Z"/><path d="m137.93,245.44c-2.17,2.27-4.44,7.23-4.44,15.6,0,9.2,4.65,17.57,13.23,17.46,1.55,0,3.2-.31,4.86-.93-4.86-13.95-11.06-32.34-14.36-36.16-2.27-2.69-5.58-3.1-8.06-2.69l-.1-.31c3.51-2.07,7.44-3.31,11.67-3.31,6.2,0,13.12,2.89,16.22,10.95,3.62,9.3,7.96,21.49,11.98,32.24,1.65,4.44,3.82,7.85,5.27,9.3h-19.11l-2.89-8.27c-2.89,6.1-7.65,9.09-14.67,9.09-10.95,0-18.7-7.85-18.7-18.18,0-11.88,7.75-20.35,19.11-24.8Z"/><path d="m172.44,244.51l20.25-9.4v20.35c2.27-11.98,8.47-19.11,21.49-20.35l-3.2,15.29c-6.82-1.45-18.29.21-18.29,11.16v7.96c0,10.33,2.48,16.12,4.86,18.08h-20.97l.62-27.17c.21-10.33-3.1-14.36-4.75-15.5v-.41Z"/><path d="m240.42,235.11c14.67,0,26.55,11.88,26.55,26.66s-11.78,26.66-26.66,26.66-26.66-11.78-26.66-26.76,11.99-26.55,26.76-26.55Zm7.23,50.83c3.93.21,6.1-3.82,6.1-10.13,0-13.64-10.64-38.23-21.08-38.23-3.72,0-5.68,4.03-5.68,9.81,0,13.33,10.44,37.71,20.66,38.54Z"/><path d="m268.83,225.19l20.25-9.92v54.24c0,10.33,2.48,16.12,4.86,18.08h-20.97l.62-46.49c.1-10.33-3.1-14.36-4.75-15.5v-.41Z"/><path d="m295.59,245.03l20.25-9.92v34.41c0,10.33,2.48,16.12,4.86,18.08h-20.97l.62-26.66c.21-10.33-3.1-14.36-4.75-15.5v-.41Zm12.09-31.2c5.37,0,9.2,4.34,9.2,9.4s-3.82,9.2-9.2,9.2-9.4-4.03-9.4-9.2,4.13-9.4,9.4-9.4Z"/><path d="m322.35,245.03l20.25-9.92v7.54c2.48-3.51,6.82-7.54,13.74-7.54,8.89,0,12.3,4.86,15.19,17.36l4.34,19.01c2.27,10.02,5.06,14.05,7.64,16.12h-20.97l-7.65-35.85c-1.45-6.72-2.07-10.85-5.27-11.47-2.89-.52-4.96,1.45-7.03,3.93v25.31c0,10.33,2.48,16.12,4.86,18.08h-20.97l.62-26.66c.21-10.33-3.1-14.36-4.75-15.5v-.41Z"/><path d="m401.39,245.44c-2.17,2.27-4.44,7.23-4.44,15.6,0,9.2,4.65,17.57,13.23,17.46,1.55,0,3.2-.31,4.86-.93-4.86-13.95-11.06-32.34-14.36-36.16-2.27-2.69-5.58-3.1-8.06-2.69l-.1-.31c3.51-2.07,7.44-3.31,11.67-3.31,6.2,0,13.12,2.89,16.22,10.95,3.62,9.3,7.96,21.49,11.98,32.24,1.65,4.44,3.82,7.85,5.27,9.3h-19.12l-2.89-8.27c-2.89,6.1-7.65,9.09-14.67,9.09-10.95,0-18.7-7.85-18.7-18.18,0-11.88,7.75-20.35,19.11-24.8Z"/><path d="m43.5,380.43c2.89-6.72,5.37-19.53,6.3-34.41l1.45-23.76-5.58-14.16h18.29l21.49,54.86,19.73-54.86h18.39c-1.76,1.76-4.55,4.86-5.99,8.27l2.27,42.67c.62,11.26,2.58,16.84,4.86,21.39h-25.11c3-4.55,4.13-12.71,3.72-21.39l-1.55-29.03c-4.03,5.99-7.96,13.12-10.64,20.87l-5.68,16.12v13.43h-11.47l-21.49-54.86-1.03,16.84c-1.34,21.39,5.89,33.89,9.09,38.02h-17.05Z"/><path d="m145.37,338.27c-2.17,2.27-4.44,7.23-4.44,15.6,0,9.2,4.65,17.57,13.23,17.46,1.55,0,3.2-.31,4.86-.93-4.86-13.95-11.06-32.34-14.36-36.16-2.27-2.69-5.58-3.1-8.06-2.69l-.1-.31c3.51-2.07,7.44-3.31,11.68-3.31,6.2,0,13.12,2.89,16.22,10.95,3.62,9.3,7.96,21.49,11.99,32.24,1.65,4.44,3.82,7.85,5.27,9.3h-19.11l-2.89-8.27c-2.89,6.1-7.64,9.09-14.67,9.09-10.95,0-18.7-7.85-18.7-18.18,0-11.88,7.75-20.35,19.11-24.8Z"/><path d="m203.54,375.47c7.64-3.72,10.54-9.09,10.44-17.57-.1-12.71-8.89-30.07-16.95-28-3.93,1.03-4.75,5.48-4.75,9.61,0,11.26,5.58,26.55,15.91,30.79-2.89,1.03-5.99,1.55-8.89,1.55-10.95,0-19.32-8.16-19.94-19.63-.83-15.29,11.26-24.8,25.83-24.28,5.58.21,10.54,1.86,14.47,4.86l2.79-12.09h13.64v.41c-5.58,4.13-11.78,8.37-15.71,12.3,4.34,3.41,6.92,9.3,6.72,15.29-.41,10.13-6.72,16.84-18.8,25.52-11.37,8.06-15.29,18.6-15.81,25.11-.21,3.1.72,6.72,3.82,5.99,6.61-1.55,7.13-17.15,33.48-30.79v19.63c-19.84,0-28.93,14.57-42.88,14.57-5.89,0-11.06-3.72-11.06-9.61,0-10.85,13.12-16.33,27.69-23.66Z"/><path d="m232.26,337.34l20.25-9.4v20.35c2.27-11.98,8.47-19.11,21.49-20.35l-3.2,15.29c-6.82-1.45-18.29.21-18.29,11.16v7.96c0,10.33,2.48,16.12,4.86,18.08h-20.97l.62-27.17c.21-10.33-3.1-14.36-4.75-15.5v-.41Z"/><path d="m300.24,327.94c14.67,0,26.55,11.88,26.55,26.66s-11.78,26.66-26.66,26.66-26.66-11.78-26.66-26.76,11.98-26.55,26.76-26.55Zm7.23,50.83c3.93.21,6.1-3.82,6.1-10.13,0-13.64-10.64-38.23-21.08-38.23-3.72,0-5.68,4.03-5.68,9.81,0,13.33,10.44,37.71,20.67,38.54Z"/><path class="cls-1" d="m46.97,422.5h21.07v4.15h-16.64v9.73h15.49v4.15h-15.49v10.46h17.47v4.15h-21.89v-32.64Z"/><path class="cls-1" d="m84.08,437.99l-10.97-15.49h5.67l8.48,12.54,8.39-12.54h5.53l-10.88,15.44,11.98,17.19h-5.81l-9.36-14.15-9.4,14.15h-5.49l11.85-17.15Z"/><path class="cls-1" d="m122.75,455.97c-2.49,0-4.78-.44-6.87-1.31s-3.88-2.08-5.37-3.62c-1.49-1.54-2.66-3.35-3.5-5.44-.85-2.09-1.27-4.35-1.27-6.78s.42-4.69,1.27-6.78c.84-2.09,2.01-3.9,3.5-5.44,1.49-1.54,3.28-2.74,5.37-3.62s4.38-1.31,6.87-1.31,4.78.44,6.87,1.31c2.09.88,3.88,2.08,5.37,3.62s2.66,3.35,3.5,5.44c.84,2.09,1.27,4.35,1.27,6.78s-.42,4.69-1.27,6.78c-.85,2.09-2.01,3.9-3.5,5.44-1.49,1.54-3.28,2.74-5.37,3.62-2.09.88-4.38,1.31-6.87,1.31Zm0-4.15c1.87,0,3.56-.35,5.07-1.04,1.51-.69,2.8-1.62,3.87-2.79,1.08-1.17,1.9-2.54,2.49-4.13.58-1.58.88-3.26.88-5.05s-.29-3.46-.88-5.05-1.41-2.96-2.49-4.13c-1.08-1.17-2.37-2.1-3.87-2.79-1.51-.69-3.2-1.04-5.07-1.04s-3.57.35-5.07,1.04c-1.51.69-2.8,1.62-3.87,2.79-1.08,1.17-1.91,2.54-2.49,4.13s-.88,3.27-.88,5.05.29,3.46.88,5.05c.58,1.58,1.41,2.96,2.49,4.13,1.08,1.17,2.37,2.1,3.87,2.79,1.51.69,3.2,1.04,5.07,1.04Z"/><path class="cls-1" d="m154.33,426.65h-10.51v-4.15h25.44v4.15h-10.51v28.49h-4.42v-28.49Z"/><path class="cls-1" d="m175.35,422.5h4.42v32.64h-4.42v-32.64Z"/><path class="cls-1" d="m212.27,429.55c-.92-1.2-2.09-2.12-3.5-2.77-1.41-.65-2.87-.97-4.38-.97-1.84,0-3.51.35-5,1.04-1.49.69-2.77,1.64-3.83,2.84s-1.88,2.6-2.46,4.22c-.59,1.61-.88,3.34-.88,5.19,0,1.72.28,3.35.83,4.89s1.35,2.89,2.4,4.06,2.32,2.09,3.83,2.77c1.51.68,3.21,1.01,5.12,1.01s3.52-.38,4.93-1.15c1.41-.77,2.61-1.84,3.6-3.23l3.73,2.81c-.25.34-.68.82-1.29,1.45s-1.43,1.26-2.44,1.89c-1.01.63-2.24,1.18-3.66,1.66-1.43.48-3.08.72-4.95.72-2.58,0-4.91-.49-6.98-1.48-2.07-.98-3.84-2.27-5.3-3.87-1.46-1.6-2.58-3.4-3.34-5.42-.77-2.01-1.15-4.05-1.15-6.11,0-2.52.42-4.85,1.24-6.98.83-2.14,1.99-3.98,3.48-5.53,1.49-1.55,3.28-2.76,5.37-3.62,2.09-.86,4.39-1.29,6.91-1.29,2.15,0,4.26.42,6.34,1.24,2.08.83,3.77,2.11,5.09,3.83l-3.69,2.81Z"/><path class="cls-1" d="m233.1,422.5h5.12l9.59,26.55h.09l9.96-26.55h4.84l-12.86,32.64h-4.15l-12.58-32.64Z"/><path class="cls-1" d="m268,422.5h21.07v4.15h-16.64v9.73h15.49v4.15h-15.49v10.46h17.47v4.15h-21.9v-32.64Z"/><path class="cls-1" d="m304.37,426.65h-10.51v-4.15h25.45v4.15h-10.51v28.49h-4.43v-28.49Z"/></g><path class="cls-2" d="m803.28,396.08l-9.29,1.45c-.24.04-.47.13-.66.28l-5.33,4.08c-.11.08-.23.15-.36.2l-8.6,3.33c-.82.32-1.72-.15-1.94-1l-1.21-4.81c-.14-.54.05-1.12.48-1.47l1.19-.99c.5-.41.66-1.1.41-1.69l-3.61-8.43c-.03-.08-.06-.14-.08-.23-.59-2.49-10.88-46.26-10.88-47.59,0-1.08,1.14-4.15,1.61-5.38.13-.34.13-.71,0-1.05l-4.3-10.78s-.02-.06-.03-.1l-7.69-23.95c-.02-.05-.04-.1-.06-.15l-18.69-41.41c-.21-.47-.16-1.02.14-1.44l1.06-1.48c.42-.59.35-1.39-.17-1.89l-12.21-11.79c-.33-.32-.49-.77-.43-1.23l.28-2.23c.05-.43-.09-.87-.39-1.18l-7.2-7.63s-.06-.07-.09-.11l-6.18-7.94c-.09-.12-.17-.25-.22-.39l-6.27-17.01s-.02-.06-.03-.08l-2.67-8.88c-.03-.11-.08-.21-.13-.31l-8.87-15.35c-.63-1.08.32-2.4,1.55-2.15l1.96.39,19.14,3.12c.25.04.52.01.76-.08l10.04-3.86c.77-.3,1.14-1.17.81-1.93l-.41-.95c-.22-.51-.7-.85-1.26-.88-2.41-.11-8.89-.41-10-.41-1.37,0-14.09-1.82-15.45-1.82-1.24,0-12.65-3.01-14.68-3.55-.21-.06-.42-.06-.64-.02l-5.06.97-.08-.05,3.8-2.17c.2-.11.43-.18.66-.19l9.55-.43c.06,0,.11,0,.17,0l12.81.88c.19.01.38-.01.56-.07l15.97-5.33c.07-.02.14-.05.21-.09l13.61-7.02c.25-.13.45-.32.59-.56l4.79-8.26-.32-.16h0l-1.47-.74c-.56-.28-1.24-.17-1.68.27l-4.47,4.47c-.16.16-.35.27-.55.35l-11.21,3.88c-.19.07-.39.09-.59.08l-11.46-.88s-.07,0-.11,0h-15.76s-.1,0-.15,0l-3.67.37c-1.48.15-2.2-1.75-1-2.62l.55-.4c.07-.05.14-.1.22-.13l14.81-7.18s.08-.04.13-.05l19.16-7.13c.21-.08.39-.2.54-.36l10.32-10.74c.23-.24.37-.56.4-.89l.86-10.39h-2.34c-.52,0-.99.27-1.25.72l-3.87,6.59c-.16.27-.4.48-.68.6l-9.1,3.9-16.71,6.32c-.07.03-.14.05-.21.06l-10.52,2.22c-1.25.26-2.21-1.09-1.54-2.18l8.01-13.12c.05-.08.09-.16.12-.24l5.8-15.15c.04-.11.07-.23.09-.35l2.19-18.38c.04-.34-.04-.68-.22-.96l-3.28-5.1h0l-.53-.82-2.55-.77c-.97-.29-1.93.47-1.87,1.47l.32,5.9c0,.13,0,.27-.03.4l-4.44,19.57c-.03.15-.09.29-.17.42l-9.84,16.55s-.05.08-.08.12l-8.55,11.7s-.06.07-.09.11l-4.13,4.63.09-.13,7.65-15.3c.05-.09.08-.18.1-.28.35-1.36,3.17-12.21,3.6-13.49.44-1.31,1.71-12.66,1.82-13.57,0-.04,0-.08,0-.12l.44-16.97c0-.15-.02-.31-.06-.46l-2.52-8.4c-.09-.3-.27-.56-.52-.75l-.6-.45c-1.01-.76-2.45.05-2.32,1.31l.13,1.25,1.35,14.36c.01.12,0,.24,0,.35l-3.59,23.73c-.02.11-.05.21-.09.32l-6.65,16.84c-.07.17-.17.33-.3.47l-7.98,8.43-3.77,4.28-.35-.19-8.1,9.91c-.05.06-.1.11-.16.16l-1.68,1.5,2.18-4.6c.05-.1.11-.2.18-.29l7.13-8.92s.03-.04.05-.06l6.69-9.36c.07-.1.13-.21.17-.32l5.32-13.75c.04-.11.07-.22.09-.34l1.78-13.77c.01-.09.01-.18,0-.27l-.9-15.72s0-.06,0-.09l-2.23-18.34c-.02-.16-.06-.31-.13-.45l-3.99-8.42-1.17.32h0l-2.04.55c-.91.25-1.35,1.28-.89,2.11l1.22,2.2c.1.18.16.37.18.57l1.32,14.12c0,.08,0,.15,0,.23l-.9,14.31c0,.07-.01.15-.03.22l-4.48,20.6c-.03.13-.07.25-.13.36l-5.3,10.18c-.03.07-.07.13-.12.19l-6.56,8.95c-.68.93-2.11.74-2.53-.33l-.38-.99-.94.81,3.17-5.73c.03-.06.06-.11.08-.17l5.79-14.7c.05-.13.08-.27.1-.41l1.77-21.29c.02-.2,0-.39-.07-.58l-4.83-14.48c-.05-.15-.12-.29-.22-.42l-9.45-12.47c-.25-.33-.62-.53-1.03-.57l-2.66-.24c-.89-.08-1.65.66-1.58,1.55l.3,4.26c.02.26.1.51.25.72l5.59,8.16c.07.1.12.21.16.32l3,8.14c.08.21.1.43.08.65l-.55,5.53-.78-3.59-9.5,34.85c-.02.08-.05.16-.09.24l-7.15,15.21c-.04.08-.08.16-.14.23l-12.49,17.39c-.1.14-.18.3-.22.47l-3.02,11.24c-.06.21-.07.43-.02.65l2.59,13.81c.05.26.17.51.35.71l.91,1.01-9.59,8.48c-.15.13-.28.3-.36.49l-7.01,15.35c-.08.18-.13.37-.13.56l-.43,15.69c0,.24.05.48.15.69l4.74,9.5c.06.11.13.22.21.32l3.5,3.94,1.72-1.14h0l1.01-.67-3.37-6.32c-.17-.32-.22-.69-.13-1.04l1.06-4.24c.35-1.38,2.26-1.49,2.77-.17l.89,2.31c.09.25.25.46.46.62l5.76,4.53c.19.15.41.25.64.29l3.55.64c.83.15,1.36.97,1.15,1.79l-.44,1.75c-.05.19-.06.4-.02.59l1.68,10.07c.06.34,0,.69-.19.99l-11.76,19.59c-.15.26-.22.55-.2.85l3.13,45.63c.01.17.05.33.12.48l19.77,45.39c.07.17.18.32.31.45l9.04,9.04c.2.2.33.44.39.71l3.48,15.53c.04.2.13.38.25.54l1.16,1.57c.18.24.27.53.28.82l.09,3.05c0,.07,0,.13.02.2l1.61,9.7c.05.28.17.54.36.74l2.81,3.06c.19.21.31.46.36.74l.24,1.43c.03.16.08.31.16.45l4.28,7.9s.04.08.07.11l3.92,5.88c.09.13.15.27.19.43l.37,1.35-.09.12-7.12,1.02s-.05,0-.08.01l-4.88.98c-.13.03-.25.07-.36.12l-5.28,2.63-7.06,3.36c-.07.03-.13.07-.19.11l-7.29,4.97c-.07.05-.14.11-.21.17l-3.06,3.06c-.88.88-.32,2.38.91,2.48l6.33.5-12.9-1.02s-.05,0-.08,0l-12.66-.3c-.86-.02-1.56.71-1.48,1.57l1.17,14.27c.04.51.34.96.8,1.18l3.73,1.86c.2.1.42.15.65.15h11.27c.69,0,1.29.49,1.43,1.17l.45,2.26c.08.42.35.78.72.99l5.55,3.08.53-.59,1.94.98c.37.19.81.21,1.19.05l3.97-1.59c.34-.14.62-.4.78-.74l1.02-2.18c.27-.59.91-.92,1.55-.82l4.75.76c.19.03.38.02.56-.02l12.6-2.99s.09-.02.14-.04l9.65-3.33c.1-.04.2-.08.29-.14l12.47-7.75.13-.06.62.55.84,3.14c.08.3.06.61-.05.9l-2.21,5.69-.37,1.12c-.39,1.18.77,2.27,1.92,1.81l1.68-.67c.33-.13.6-.38.76-.7l2.73-5.47c.06-.12.1-.24.13-.37l.5-2.53c.15-.74.84-1.25,1.59-1.16h0c.72.08,1.4-.39,1.57-1.09l.9-3.59,1.52-.29,8.73-4.03c.09-.04.18-.07.28-.1l12.41-2.89c.79-.18,1.58.32,1.75,1.12s.29,1.29.34,1.47c.45,1.36,9.09,27.71,9.99,29.53.82,1.63,7.86,14.23,9.29,16.8.17.3.43.52.76.65l6.63,2.49c.09.03.18.08.26.13l11.89,7.49c.16.1.34.17.53.2l12.27,2.11c.4.07.81-.03,1.13-.28l9-6.85s.06-.04.09-.06l7.64-4.94s.04-.03.07-.04l2.01-1.16c.64-.37.91-1.16.61-1.84l-4.02-9.25-7.27-19.08-6.84-20.9c-.09-.27-.1-.55-.02-.82l.5-1.9,7.62,3.38c.37.16.78.17,1.15.01l3.74-1.56c.65-.27,1.02-.98.86-1.67l-2-8.68c-.15-.67.18-1.35.8-1.64l13.86-6.55c.15-.07.31-.11.47-.13l8.47-.87c.68-.07,1.21-.6,1.3-1.27l.86-7.06c.02-.2,0-.41-.05-.6l-1.93-6.34c-.21-.69-.9-1.12-1.62-1.01Zm-143.08,27.73l5.18-.87c.52-.09.95-.45,1.13-.95l.58-1.63,1.51-.28,3.38-7.79s.02-.05.03-.07l3.62-7.24c.07-.15.12-.31.14-.48l.24-1.98c.05-.43.3-.82.66-1.06l1.02-.65c.47-.3.73-.84.66-1.4l-.04-.38c-.14-1.17,1.1-2.01,2.14-1.45l19.67,10.61c.1.05.19.12.28.2l10.63,9.51c.24.21.4.49.46.81.11.59.23,1.22.36,1.88l-6.81-2.43c-.22-.08-.46-.1-.69-.07l-9.47,1.3s-.08.01-.12.02l-12.2,2.71-10.7,2.34c-.13.03-.26.08-.38.14l-5.01,2.72-1.54-.09c-.05,0-.11,0-.16-.02l-5.91-.99c-.09-.02-.18-.04-.27-.07l-2.59-.97,3.98-1.32c.07-.02.14-.04.22-.05Zm-10.21,9.74l-8.76,2.36s-.07.02-.11.03l-3.36.63,11.34-4.73c.28-.12.58-.14.88-.08.75.17,2.34.53,4.1.94l-3.99.83s-.06.01-.08.02Zm-15.92,25.21c-.35.32-.84.44-1.3.34l-1.47-.34h0s-.31-1.57-.31-1.57l4.11.65-1.02.92Z"/><path class="cls-2" d="m585.56,370.34l-5.67-11.34s-.03-.06-.04-.09l-11.81-28.48c-.05-.12-.12-.24-.2-.34l-4.83-6.14c-.17-.21-.27-.47-.3-.74l-1.72-15.2c-.01-.11-.01-.23,0-.34l3.81-30.89c0-.07.01-.14.01-.21l-.34-15.98c0-.24-.07-.47-.19-.68l-9.21-16.45c-.26-.46-.74-.74-1.27-.74h-.86c-.65,0-1.22.43-1.4,1.05l-.39,1.35s-.02.06-.03.09l-8.61,23.77c-.08.23-.11.47-.07.71l2.04,13.9c0,.06.02.12.04.18l6.85,24.31c.08.29.07.6-.03.88l-.59,1.66c-.33.91-1.43,1.26-2.22.69l-3.68-2.63h0s-2.99-2.13-2.99-2.13c-.11-.08-.21-.17-.3-.28l-3.08-3.89h0s-6.86-8.64-6.86-8.64h0s-4.51-5.69-4.51-5.69c-.09-.12-.2-.22-.32-.3l-21.4-14.51c-.07-.05-.15-.09-.23-.13l-17.38-7.65-2.47-1.23c-.61-.3-1.34-.15-1.77.38l-5.37,6.5c-.34.41-.43.96-.23,1.45l4.43,11.41c.1.27.28.5.52.66l16.37,11.6c.05.04.1.08.15.12l24.55,22.82c.15.14.27.31.35.51l1.41,3.37c.14.34.15.73.02,1.08l-2.51,6.59c-.06.15-.14.28-.24.41l-7.9,9.62-1.67-.19h0l-7.35-.85c-.06,0-.11,0-.17,0h-9.55c-.11,0-.22-.01-.32-.04l-46.09-10.4c-.21-.05-.42-.05-.63,0l-31.47,6.92s-.1.02-.15.04l-15.85,5.29h0s-18.07,6.02-18.07,6.02c-.42.14-.75.46-.91.88l-15.8,42.93c-.04.12-.07.24-.08.36l-3.76,37.97c-.04.45.12.9.46,1.21l15.1,14.08c.09.08.18.15.28.21l5.17,2.88c.57.32.86.99.7,1.62l-1.07,4.29c-.22.86.39,1.71,1.27,1.8l12.62,1.23s.07,0,.11.01l13.95,2.44,29.97,5.93c.09.02.19.03.28.03h8.26l.46-2.33c.14-.68.73-1.17,1.43-1.17h1.6v-6.3c0-.63.41-1.19,1.01-1.38l10.9-3.52,11.68-4.41h0s.55-.22.55-.22h0l.72-.27.22,1.56c.08.55.46,1,.98,1.18l12.5,4.17c.2.07.38.18.53.32l5.03,4.72c.22.21.5.34.8.38l14.9,2.03s.06,0,.09.02l15.22,3.05c.32.06.65.02.94-.13l4.54-2.27h0l1.31-.66-1.05-4.9-.55-.66,7.2.32h9.4c.8,0,1.46-.65,1.46-1.46v-2.08c0-.43.19-.83.51-1.11l.99-.85c.55-.47.67-1.27.29-1.88l-.89-1.42c-.13-.21-.32-.38-.53-.5l-10.39-5.7c-.08-.05-.17-.08-.26-.11l-6.22-1.97c-.98-.31-1.34-1.52-.68-2.32l7.69-9.28s.06-.07.08-.11l10.3-15.09c.11-.17.19-.36.23-.56l2.28-12.4c.07-.39.3-.73.63-.95l4.14-2.75c.38-.25.61-.66.65-1.11l.3-4.19h12.69c.4,0,.78-.16,1.05-.45l7.97-8.31.18-.62h0l2.45-8.29c.1-.35.07-.73-.09-1.06Z"/></svg>